<svg width="234" height="233" viewBox="0 0 234 233" fill="none" xmlns="http://www.w3.org/2000/svg">
<rect width="234" height="233" rx="8" fill="white"/>
<g clip-path="url(#clip0_6_4)">
<path d="M175.26 53H52C46.4772 53 42 57.4771 42 63V169.87C42 175.393 46.4772 179.87 52 179.87H175.26C180.783 179.87 185.26 175.393 185.26 169.87V63C185.26 57.4771 180.783 53 175.26 53Z" stroke="#2F2F31" stroke-width="2" stroke-miterlimit="10"/>
<path d="M51.876 83.1567V157.44H176.561" stroke="#0B65D1" stroke-width="2" stroke-linecap="round" stroke-linejoin="round"/>
<path d="M83.9289 145.928C83.9289 145.376 83.4812 144.928 82.9289 144.928H65.7938C65.2415 144.928 64.7938 145.376 64.7938 145.928V156.44C64.7938 156.992 65.2415 157.44 65.7938 157.44H82.9289C83.4812 157.44 83.9289 156.992 83.9289 156.44V145.928Z" fill="#C4DCFF" stroke="#0B65D1" stroke-width="2" stroke-miterlimit="10"/>
<path d="M112.163 127.313C112.163 126.761 111.715 126.313 111.163 126.313H94.0272C93.4749 126.313 93.0272 126.761 93.0272 127.313V156.427C93.0272 156.979 93.4749 157.427 94.0272 157.427H111.163C111.715 157.427 112.163 156.979 112.163 156.427V127.313Z" fill="#C4DCFF" stroke="#0B65D1" stroke-width="2" stroke-miterlimit="10"/>
<path d="M140.384 101.236C140.384 100.684 139.936 100.236 139.384 100.236H122.248C121.696 100.236 121.248 100.684 121.248 101.236V156.44C121.248 156.992 121.696 157.44 122.248 157.44H139.384C139.936 157.44 140.384 156.992 140.384 156.44V101.236Z" fill="#C4DCFF" stroke="#0B65D1" stroke-width="2" stroke-miterlimit="10"/>
<path d="M173.819 77C173.819 76.4477 173.371 76 172.819 76H155.684C155.132 76 154.684 76.4477 154.684 77V156.427C154.684 156.979 155.132 157.427 155.684 157.427H172.819C173.371 157.427 173.819 156.979 173.819 156.427V77Z" fill="#C4DCFF" stroke="#0B65D1" stroke-width="2" stroke-miterlimit="10"/>
<path d="M199.16 76.41V53.03" stroke="#2F2F31" stroke-width="2" stroke-linecap="round" stroke-linejoin="round"/>
<path d="M199.16 46.44V40" stroke="#2F2F31" stroke-width="2" stroke-linecap="round" stroke-linejoin="round"/>
<path d="M208.63 80.85L216.26 73.9" stroke="#2F2F31" stroke-width="2" stroke-linecap="round" stroke-linejoin="round"/>
<path d="M207.79 91H170.77C167.031 91 164 94.031 164 97.77V134.79C164 138.529 167.031 141.56 170.77 141.56H207.79C211.529 141.56 214.56 138.529 214.56 134.79V97.77C214.56 94.031 211.529 91 207.79 91Z" fill="#F5F6FD" stroke="#2F2F31" stroke-width="2" stroke-miterlimit="10"/>
<path d="M200.11 114.14H192.89V99.58L178.46 118.43H185.67V132.99L200.11 114.14Z" fill="#C4DCFF" stroke="#0B65D1" stroke-width="2" stroke-linecap="round" stroke-linejoin="round"/>
<path d="M66.48 83H27.04C21.495 83 17 87.4951 17 93.04V182.21C17 187.755 21.495 192.25 27.04 192.25H66.48C72.025 192.25 76.52 187.755 76.52 182.21V93.04C76.52 87.4951 72.025 83 66.48 83Z" fill="white" stroke="#2F2F31" stroke-width="2" stroke-miterlimit="10"/>
<path d="M64.5 192.5L28.9598 191.78C25.7908 191.78 22.241 191.241 20 189C17.759 186.759 17.0098 182.999 17.0098 179.83V176.99H76.5298V179.83C76.5298 182.999 75.191 186.759 72.95 189C70.709 191.241 67.67 192.5 64.5 192.5Z" fill="#2F2F31"/>
<path d="M23.78 83.14L69.5 83.5C72.6081 83.5 75.55 86.943 75.55 89.91V94.91H18V88.91C18 86.5 22 83.14 23.78 83.14Z" fill="#2D2D2D"/>
<path d="M64.1293 104.64H29.9993C27.3933 104.64 25.2793 106.753 25.2793 109.36V153.26C25.2793 155.867 27.3933 157.98 29.9993 157.98H64.1293C66.7363 157.98 68.8493 155.867 68.8493 153.26V109.36C68.8493 106.753 66.7363 104.64 64.1293 104.64Z" fill="#C4DCFF" stroke="#0B65D1" stroke-width="2" stroke-miterlimit="10"/>
<path d="M46.7696 188.06C48.7966 188.06 50.4396 186.417 50.4396 184.39C50.4396 182.363 48.7966 180.72 46.7696 180.72C44.7426 180.72 43.0996 182.363 43.0996 184.39C43.0996 186.417 44.7426 188.06 46.7696 188.06Z" fill="#F5F6FD" stroke="#0B65D1" stroke-width="2" stroke-miterlimit="10"/>
<path d="M56.3499 163.68C56.3499 164.42 55.7506 165.02 55.0099 165.02C54.27 165.02 53.6699 164.42 53.6699 163.68C53.6699 162.94 54.27 162.34 55.0099 162.34C55.7506 162.34 56.3499 162.94 56.3499 163.68Z" fill="#0B65D1" stroke="#0B65D1"/>
<path d="M61.2306 165.52C62.2466 165.52 63.0706 164.696 63.0706 163.68C63.0706 162.664 62.2466 161.84 61.2306 161.84C60.2146 161.84 59.3906 162.664 59.3906 163.68C59.3906 164.696 60.2146 165.52 61.2306 165.52Z" fill="#0B65D1"/>
<path d="M67.4396 165.52C68.4556 165.52 69.2796 164.696 69.2796 163.68C69.2796 162.664 68.4556 161.84 67.4396 161.84C66.4236 161.84 65.5996 162.664 65.5996 163.68C65.5996 164.696 66.4236 165.52 67.4396 165.52Z" fill="#0B65D1"/>
<path d="M33.5098 117.31H60.6098" stroke="#0B65D1" stroke-width="2" stroke-linecap="round" stroke-linejoin="round"/>
<path d="M33.5098 125.64H60.6098" stroke="#0B65D1" stroke-width="2" stroke-linecap="round" stroke-linejoin="round"/>
<path d="M33.5098 133.96H60.6098" stroke="#0B65D1" stroke-width="2" stroke-linecap="round" stroke-linejoin="round"/>
<path d="M33.5098 142.29H47.3598" stroke="#0B65D1" stroke-width="2" stroke-linecap="round" stroke-linejoin="round"/>
</g>
<defs>
<clipPath id="clip0_6_4">
<rect width="202" height="155" fill="white" transform="translate(16 39)"/>
</clipPath>
</defs>
</svg>
