<svg width="202" height="155" viewBox="0 0 202 155" fill="none" xmlns="http://www.w3.org/2000/svg">
<g clip-path="url(#clip0_1_4)">
<path d="M159.26 14H36C30.4772 14 26 18.4771 26 24V130.87C26 136.393 30.4772 140.87 36 140.87H159.26C164.783 140.87 169.26 136.393 169.26 130.87V24C169.26 18.4771 164.783 14 159.26 14Z" stroke="#2F2F31" stroke-width="2" stroke-miterlimit="10"/>
<path d="M35.876 44.1567V118.44H160.561" stroke="#0B65D1" stroke-width="2" stroke-linecap="round" stroke-linejoin="round"/>
<path d="M67.9289 106.928C67.9289 106.376 67.4812 105.928 66.9289 105.928H49.7938C49.2415 105.928 48.7938 106.376 48.7938 106.928V117.44C48.7938 117.992 49.2415 118.44 49.7938 118.44H66.9289C67.4812 118.44 67.9289 117.992 67.9289 117.44V106.928Z" fill="#C4DCFF" stroke="#0B65D1" stroke-width="2" stroke-miterlimit="10"/>
<path d="M96.1627 88.3132C96.1627 87.7609 95.715 87.3132 95.1627 87.3132H78.0272C77.4749 87.3132 77.0272 87.7609 77.0272 88.3132V117.427C77.0272 117.979 77.4749 118.427 78.0272 118.427H95.1627C95.715 118.427 96.1627 117.979 96.1627 117.427V88.3132Z" fill="#C4DCFF" stroke="#0B65D1" stroke-width="2" stroke-miterlimit="10"/>
<path d="M124.384 62.2365C124.384 61.6842 123.936 61.2365 123.384 61.2365H106.248C105.696 61.2365 105.248 61.6842 105.248 62.2365V117.44C105.248 117.992 105.696 118.44 106.248 118.44H123.384C123.936 118.44 124.384 117.992 124.384 117.44V62.2365Z" fill="#C4DCFF" stroke="#0B65D1" stroke-width="2" stroke-miterlimit="10"/>
<path d="M157.819 38C157.819 37.4477 157.371 37 156.819 37H139.684C139.132 37 138.684 37.4477 138.684 38V117.427C138.684 117.979 139.132 118.427 139.684 118.427H156.819C157.371 118.427 157.819 117.979 157.819 117.427V38Z" fill="#C4DCFF" stroke="#0B65D1" stroke-width="2" stroke-miterlimit="10"/>
<path d="M183.16 37.41V14.03" stroke="#2F2F31" stroke-width="2" stroke-linecap="round" stroke-linejoin="round"/>
<path d="M183.16 7.44V1" stroke="#2F2F31" stroke-width="2" stroke-linecap="round" stroke-linejoin="round"/>
<path d="M192.63 41.85L200.26 34.9" stroke="#2F2F31" stroke-width="2" stroke-linecap="round" stroke-linejoin="round"/>
<path d="M191.79 52H154.77C151.031 52 148 55.031 148 58.77V95.79C148 99.529 151.031 102.56 154.77 102.56H191.79C195.529 102.56 198.56 99.529 198.56 95.79V58.77C198.56 55.031 195.529 52 191.79 52Z" fill="#F5F6FD" stroke="#2F2F31" stroke-width="2" stroke-miterlimit="10"/>
<path d="M184.11 75.14H176.89V60.58L162.46 79.43H169.67V93.99L184.11 75.14Z" fill="#C4DCFF" stroke="#0B65D1" stroke-width="2" stroke-linecap="round" stroke-linejoin="round"/>
<path d="M50.48 44H11.04C5.495 44 1 48.4951 1 54.04V143.21C1 148.755 5.495 153.25 11.04 153.25H50.48C56.025 153.25 60.52 148.755 60.52 143.21V54.04C60.52 48.4951 56.025 44 50.48 44Z" fill="white" stroke="#2F2F31" stroke-width="2" stroke-miterlimit="10"/>
<path d="M48.5 153.5L12.9598 152.78C9.79076 152.78 6.241 152.241 4 150C1.759 147.759 1.00977 143.999 1.00977 140.83V137.99H60.5298V140.83C60.5298 143.999 59.191 147.759 56.95 150C54.709 152.241 51.67 153.5 48.5 153.5Z" fill="#2F2F31"/>
<path d="M7.78001 44.14L53.5 44.5C56.6081 44.5 59.55 47.943 59.55 50.91V55.91H2V49.91C2 47.5 6 44.14 7.78001 44.14Z" fill="#2D2D2D"/>
<path d="M48.1293 65.64H13.9993C11.3933 65.64 9.2793 67.7532 9.2793 70.36V114.26C9.2793 116.867 11.3933 118.98 13.9993 118.98H48.1293C50.7363 118.98 52.8493 116.867 52.8493 114.26V70.36C52.8493 67.7532 50.7363 65.64 48.1293 65.64Z" fill="#C4DCFF" stroke="#0B65D1" stroke-width="2" stroke-miterlimit="10"/>
<path d="M30.7696 149.06C32.7966 149.06 34.4396 147.417 34.4396 145.39C34.4396 143.363 32.7966 141.72 30.7696 141.72C28.7426 141.72 27.0996 143.363 27.0996 145.39C27.0996 147.417 28.7426 149.06 30.7696 149.06Z" fill="#F5F6FD" stroke="#0B65D1" stroke-width="2" stroke-miterlimit="10"/>
<path d="M40.3499 124.68C40.3499 125.42 39.7506 126.02 39.0099 126.02C38.27 126.02 37.6699 125.42 37.6699 124.68C37.6699 123.94 38.27 123.34 39.0099 123.34C39.7506 123.34 40.3499 123.94 40.3499 124.68Z" fill="#0B65D1" stroke="#0B65D1"/>
<path d="M45.2306 126.52C46.2466 126.52 47.0706 125.696 47.0706 124.68C47.0706 123.664 46.2466 122.84 45.2306 122.84C44.2146 122.84 43.3906 123.664 43.3906 124.68C43.3906 125.696 44.2146 126.52 45.2306 126.52Z" fill="#0B65D1"/>
<path d="M51.4396 126.52C52.4556 126.52 53.2796 125.696 53.2796 124.68C53.2796 123.664 52.4556 122.84 51.4396 122.84C50.4236 122.84 49.5996 123.664 49.5996 124.68C49.5996 125.696 50.4236 126.52 51.4396 126.52Z" fill="#0B65D1"/>
<path d="M17.5098 78.3101H44.6098" stroke="#0B65D1" stroke-width="2" stroke-linecap="round" stroke-linejoin="round"/>
<path d="M17.5098 86.64H44.6098" stroke="#0B65D1" stroke-width="2" stroke-linecap="round" stroke-linejoin="round"/>
<path d="M17.5098 94.96H44.6098" stroke="#0B65D1" stroke-width="2" stroke-linecap="round" stroke-linejoin="round"/>
<path d="M17.5098 103.29H31.3598" stroke="#0B65D1" stroke-width="2" stroke-linecap="round" stroke-linejoin="round"/>
</g>
<defs>
<clipPath id="clip0_1_4">
<rect width="202" height="155" fill="white"/>
</clipPath>
</defs>
</svg>
